<?xml version="1.0" encoding="utf-8"?>
<!-- Generator: Adobe Illustrator 25.3.1, SVG Export Plug-In . SVG Version: 6.00 Build 0)  -->
<svg version="1.1" id="Layer_1" xmlns="http://www.w3.org/2000/svg" xmlns:xlink="http://www.w3.org/1999/xlink" x="0px" y="0px"
	 viewBox="0 0 510.2 510.2" style="enable-background:new 0 0 510.2 510.2;" xml:space="preserve">
<style type="text/css">
	.st0{fill:#34BDB3;}
</style>
<g id="Forma_1_9_">
	<g>
		<path class="st0" d="M418.9,91.3C328.6,1,181.6,1,91.3,91.3C1,181.6,1,328.6,91.3,418.9c90.3,90.3,237.3,90.3,327.6,0
			C509.2,328.6,509.3,181.6,418.9,91.3z M110,400.2c-80-80-80-210.2,0-290.2c80-80,210.2-80,290.2,0c80,80,80,210.2,0,290.2
			C320.2,480.2,190,480.2,110,400.2z M329.1,310.3l-55.2-55.2l55.2-55.2c5.2-5.2,5.2-13.6,0-18.7s-13.6-5.2-18.7,0l-55.2,55.2
			l-55.2-55.2c-5.2-5.2-13.6-5.2-18.7,0c-5.2,5.2-5.1,13.5,0,18.7l55.2,55.2l-55.2,55.2c-5.2,5.2-5.2,13.6,0,18.7
			c5.2,5.2,13.5,5.2,18.7,0l55.2-55.2l55.2,55.2c5.2,5.2,13.5,5.2,18.7,0C334.2,323.9,334.3,315.5,329.1,310.3z"/>
	</g>
</g>
</svg>
