<?xml version="1.0" encoding="utf-8"?>
<!-- Generator: Adobe Illustrator 24.0.1, SVG Export Plug-In . SVG Version: 6.00 Build 0)  -->
<svg version="1.1" id="Layer_1" xmlns="http://www.w3.org/2000/svg" xmlns:xlink="http://www.w3.org/1999/xlink" x="0px" y="0px"
	 viewBox="0 0 510.24 510.24" style="enable-background:new 0 0 510.24 510.24;" xml:space="preserve">
<style type="text/css">
	.st0{fill:#34BDB3;}
</style>
<g id="Forma_1_12_">
	<g>
		<path class="st0" d="M460.97,439.79H42.33c-8.8,0-15.69,6.84-15.69,14.76c0,7.92,7.27,14.76,15.69,14.76h419.02
			c8.8,0,15.69-6.84,15.69-14.76C477.04,446.63,469.77,439.79,460.97,439.79z M41.95,394.44l74.24-0.36c4.21,0,8.04-1.44,11.1-4.32
			l256.39-241.18c6.12-5.76,6.12-15.12,0-21.24L310.2,57.51c-6.12-5.76-16.07-5.76-22.58,0l-51.28,48.6L31.23,298.69
			c-2.68,2.88-4.59,6.48-4.59,10.44l-0.38,70.19c0,3.95,1.53,7.91,4.59,10.8C33.91,393,37.74,394.44,41.95,394.44z M299.1,89.19
			l51.66,48.59l-29.08,27.36l-51.66-48.59L299.1,89.19z M58.4,315.61l189.04-177.83l51.66,48.59L110.06,363.84l-52.04,0.36
			L58.4,315.61z"/>
	</g>
</g>
</svg>
