<?xml version="1.0" encoding="utf-8"?>
<!-- Generator: Adobe Illustrator 24.0.1, SVG Export Plug-In . SVG Version: 6.00 Build 0)  -->
<svg version="1.1" id="Layer_1" xmlns="http://www.w3.org/2000/svg" xmlns:xlink="http://www.w3.org/1999/xlink" x="0px" y="0px"
	 viewBox="0 0 510.24 510.24" style="enable-background:new 0 0 510.24 510.24;" xml:space="preserve">
<style type="text/css">
	.st0{fill:#010101;}
</style>
<g id="Forma_1_copy_7_3_">
	<g>
		<path class="st0" d="M476.85,250.86c-4.12-5.89-102.2-143.97-227.48-143.97c-125.27,0-223.36,138.08-227.48,143.97
			c-3.9,5.57-3.9,13.13,0,18.71c4.11,5.9,102.2,143.99,227.48,143.99c125.27,0,223.36-138.09,227.48-143.98
			C480.76,263.99,480.76,256.42,476.85,250.86z M249.38,381.84c-92.28,0-172.2-91.67-195.86-121.65
			C77.15,230.2,156.9,138.61,249.38,138.61c92.27,0,172.19,91.63,195.86,121.62C421.61,290.23,341.85,381.84,249.38,381.84z
			 M249.38,165.03c-50.26,0-91.15,42.7-91.15,95.17c0,52.51,40.89,95.21,91.15,95.21c50.26,0,91.15-42.7,91.15-95.21
			C340.53,207.73,299.63,165.03,249.38,165.03z M249.38,323.66c-33.51,0-60.76-28.45-60.76-63.46c0-34.97,27.26-63.43,60.76-63.43
			c33.51,0,60.77,28.46,60.77,63.43C310.14,295.21,282.89,323.66,249.38,323.66z"/>
	</g>
</g>
</svg>
