<svg id="Capa_1" data-name="Capa 1" xmlns="http://www.w3.org/2000/svg" viewBox="0 0 506.35 441.84"><defs><style>.cls-1{fill:none;}</style></defs><title>Vector Smart Object9</title><path class="cls-1" d="M239.22,305H263a66.53,66.53,0,0,0,47.29-19.55l94.1-94.09L352.87,139.8l-94.12,94.12a66.54,66.54,0,0,0-19.53,47.28Z" transform="translate(-2.83 -35.09)"/><path class="cls-1" d="M404,88.68l-16.74,16.73L438.83,157l16.75-16.75A36.46,36.46,0,0,0,404,88.68Z" transform="translate(-2.83 -35.09)"/><path d="M451.29,439.62H86A45.82,45.82,0,0,1,86,348h43a18.66,18.66,0,1,0,0-37.31H86a83.13,83.13,0,1,0,0,166.25H451.29a18.66,18.66,0,1,0,0-37.31Z" transform="translate(-2.83 -35.09)"/><path d="M486,58.29a79.63,79.63,0,0,0-112.36,0l-33.06,33a5.73,5.73,0,0,1-1,.69l0,0,0,0a6.33,6.33,0,0,1-.69,1l-.17.18L228.34,203.58a109.15,109.15,0,0,0-32.1,77.62v48.13A18.68,18.68,0,0,0,214.9,348H263a109.31,109.31,0,0,0,77.66-32.12L486,170.6A79.56,79.56,0,0,0,486,58.29ZM314.34,289.48a72.22,72.22,0,0,1-51.3,21.2H233.56V281.2a72.18,72.18,0,0,1,21.17-51.28l98.14-98.13,59.58,59.58ZM459.59,144.22,438.83,165l-59.59-59.58L400,84.67a42.13,42.13,0,0,1,59.6,59.55Z" transform="translate(-2.83 -35.09)"/></svg>