<?xml version="1.0" encoding="utf-8"?>
<!-- Generator: Adobe Illustrator 24.0.1, SVG Export Plug-In . SVG Version: 6.00 Build 0)  -->
<svg version="1.1" id="Layer_1" xmlns="http://www.w3.org/2000/svg" xmlns:xlink="http://www.w3.org/1999/xlink" x="0px" y="0px"
	 viewBox="0 0 510.24 510.24" style="enable-background:new 0 0 510.24 510.24;" xml:space="preserve">
<style type="text/css">
	.st0{fill:#282828;}
</style>
<g id="Forma_1_copy_30_2_">
	<g>
		<path class="st0" d="M446.88,81.9c-24.03-25.58-55.97-39.64-89.96-39.64c-33.98,0-65.93,14.06-89.97,39.64l-11.84,12.61
			L243.28,81.9c-24.03-25.58-55.98-39.64-89.96-39.64S87.38,56.31,63.35,81.9c-49.61,52.81-49.61,138.71,0,191.5L241.11,462.6
			c2.9,3.1,6.52,5,10.3,5.73c1.27,0.26,2.54,0.38,3.82,0.38c5.03,0,10.07-2.04,13.89-6.11L446.88,273.4
			C496.49,220.61,496.49,134.7,446.88,81.9z M419.09,243.82L255.11,418.35L91.14,243.82c-34.29-36.48-34.29-95.84,0-132.35
			c16.6-17.66,38.69-27.39,62.17-27.39c23.48,0,45.56,9.72,62.16,27.39l25.75,27.44c7.38,7.82,20.42,7.82,27.8,0l25.74-27.44
			c16.6-17.66,38.68-27.39,62.17-27.39c23.48,0,45.56,9.72,62.16,27.39C453.37,147.98,453.37,207.33,419.09,243.82z"/>
	</g>
</g>
</svg>
